<svg xmlns="http://www.w3.org/2000/svg" xmlns:xlink="http://www.w3.org/1999/xlink" aria-hidden="true" role="img" class="iconify iconify--logos" width="31.88" height="32" preserveAspectRatio="xMidYMid meet" viewBox="0 0 256 257"><defs><linearGradient id="IconifyId181308a9d2ff2d43b7" x1="-.828%" x2="57.636%" y1="7.652%" y2="78.411%"><stop offset="0%" stop-color="#41D1FF"></stop><stop offset="100%" stop-color="#BD34FE"></stop></linearGradient><linearGradient id="IconifyId181308a9d2ff2d43b8" x1="43.376%" x2="58.338%" y1="2.242%" y2="98.535%"><stop offset="0%" stop-color="#FFEA83"></stop><stop offset="8.333%" stop-color="#FFDD35"></stop><stop offset="100%" stop-color="#FFA800"></stop></linearGradient></defs><path fill="url(#IconifyId181308a9d2ff2d43b7)" d="M255.153 37.942c-2.922-11.423-11.458-20.55-23.6-24.954C219.537 7.87 206.255 5.313 192.48.981c-8.3-2.61-16.92-3.233-25.327-1.428c-11.021 2.37-21.51 7.03-31.252 13.251c-7.82 4.992-15.01 10.93-21.12 17.89c-11.12 12.64-19.162 27.675-22.95 43.596c-2.45 10.32-2.26 21.09 1.51 31.33c3.08 8.32 7.84 16.03 13.97 22.42c8.15 8.49 18.25 14.66 28.99 18.1c11.75 3.75 23.97 4.54 35.92 2.15c13.06-2.61 25.41-8.49 36.38-16.5c11.02-8.03 20.33-18.33 27.32-30.07c5.22-8.76 9.07-18.52 11.22-28.7c2.28-10.74 2.2-21.8-1.03-32.12z"></path><path fill="url(#IconifyId181308a9d2ff2d43b8)" d="M122.533 256.126c-31.93-2.95-61.53-15.99-84.85-37.4c-25.2-23.1-42.52-53.8-45.9-88.08c-2.23-22.5-4.43-45.02 5.06-66.2c7.2-16.1 19.3-29.8 34.6-39.2c11.6-7.1 24.5-11.5 37.9-13.2c15.8-2 29.8-4.8 44.5 2c12.3 5.6 22.7 14.5 30.6 25.3c7.5 10.2 13.2 21.6 16.6 33.7c4.6 16.3 5.5 33.1 3.5 49.8c-2.5 21.1-10.4 41.2-22.7 58.7c-11.4 16.1-26.8 29.5-44.4 37.8c-7.7 3.6-15.8 6.4-24 7.7z"></path></svg>